M48
; DRILL file {KiCad (5.1.8)-1} date 01/24/21 11:06:58
; FORMAT={-:-/ absolute / inch / decimal}
; #@! TF.CreationDate,2021-01-24T11:06:58+01:00
; #@! TF.GenerationSoftware,Kicad,Pcbnew,(5.1.8)-1
; #@! TF.FileFunction,Plated,1,2,PTH
FMAT,2
INCH
T1C0.0236
T2C0.0315
%
G90
G05
T1
X4.38Y-4.13
X4.475Y-4.075
X4.485Y-3.855
X4.525Y-4.225
X4.585Y-3.81
X4.685Y-3.81
X4.785Y-3.78
X4.885Y-3.73
X4.985Y-3.725
X5.085Y-3.69
X5.115Y-4.464
X5.185Y-3.67
X5.826Y-4.474
X5.965Y-3.975
X6.506Y-4.4
X6.585Y-4.365
X6.77Y-3.66
X6.86Y-3.63
X6.95Y-3.61
X6.965Y-3.755
X7.02Y-3.67
X7.155Y-3.6
X7.22Y-3.54
X7.265Y-4.125
X7.31Y-3.455
T2
X4.15Y-3.5181
X4.15Y-3.715
X4.284Y-3.372
X4.284Y-3.972
X4.384Y-3.372
X4.384Y-3.972
X4.484Y-3.372
X4.484Y-3.972
X4.584Y-3.372
X4.584Y-3.972
X4.684Y-3.372
X4.684Y-3.972
X4.784Y-3.372
X4.784Y-3.972
X4.884Y-3.372
X4.884Y-3.972
X4.984Y-3.372
X4.984Y-3.972
X5.084Y-3.372
X5.084Y-3.972
X5.184Y-3.372
X5.184Y-3.972
X5.284Y-3.372
X5.284Y-3.972
X5.384Y-3.372
X5.384Y-3.972
X5.484Y-3.372
X5.484Y-3.972
X5.584Y-3.372
X5.584Y-3.972
X5.8831Y-4.245
X6.08Y-4.245
X6.066Y-3.372
X6.066Y-3.972
X6.166Y-3.372
X6.166Y-3.972
X6.266Y-3.372
X6.266Y-3.972
X6.366Y-3.372
X6.366Y-3.972
X6.466Y-3.372
X6.466Y-3.972
X6.566Y-3.372
X6.566Y-3.972
X6.666Y-3.372
X6.666Y-3.972
X6.766Y-3.372
X6.766Y-3.972
X6.866Y-3.372
X6.866Y-3.972
X6.966Y-3.372
X6.966Y-3.972
X7.066Y-3.372
X7.066Y-3.972
X7.166Y-3.372
X7.166Y-3.972
X7.266Y-3.372
X7.266Y-3.972
X7.366Y-3.372
X7.366Y-3.972
T0
M30
