%TF.GenerationSoftware,KiCad,Pcbnew,(5.1.8)-1*%
%TF.CreationDate,2021-01-24T18:09:35+01:00*%
%TF.ProjectId,Alphatronic_PC8_ROM-Modul,416c7068-6174-4726-9f6e-69635f504338,2*%
%TF.SameCoordinates,Original*%
%TF.FileFunction,Copper,L2,Bot*%
%TF.FilePolarity,Positive*%
%FSLAX46Y46*%
G04 Gerber Fmt 4.6, Leading zero omitted, Abs format (unit mm)*
G04 Created by KiCad (PCBNEW (5.1.8)-1) date 2021-01-24 18:09:35*
%MOMM*%
%LPD*%
G01*
G04 APERTURE LIST*
%TA.AperFunction,NonConductor*%
%ADD10C,0.300000*%
%TD*%
%TA.AperFunction,ComponentPad*%
%ADD11C,1.600000*%
%TD*%
%TA.AperFunction,ConnectorPad*%
%ADD12R,1.778000X7.112000*%
%TD*%
%TA.AperFunction,ComponentPad*%
%ADD13O,1.600000X1.600000*%
%TD*%
%TA.AperFunction,ComponentPad*%
%ADD14R,1.600000X1.600000*%
%TD*%
%TA.AperFunction,ViaPad*%
%ADD15C,1.400000*%
%TD*%
%TA.AperFunction,Conductor*%
%ADD16C,1.000000*%
%TD*%
%TA.AperFunction,Conductor*%
%ADD17C,1.500000*%
%TD*%
%TA.AperFunction,Conductor*%
%ADD18C,0.500000*%
%TD*%
G04 APERTURE END LIST*
D10*
X114012142Y-91243571D02*
X114012142Y-89743571D01*
X113440714Y-89743571D01*
X113297857Y-89815000D01*
X113226428Y-89886428D01*
X113155000Y-90029285D01*
X113155000Y-90243571D01*
X113226428Y-90386428D01*
X113297857Y-90457857D01*
X113440714Y-90529285D01*
X114012142Y-90529285D01*
X111655000Y-91100714D02*
X111726428Y-91172142D01*
X111940714Y-91243571D01*
X112083571Y-91243571D01*
X112297857Y-91172142D01*
X112440714Y-91029285D01*
X112512142Y-90886428D01*
X112583571Y-90600714D01*
X112583571Y-90386428D01*
X112512142Y-90100714D01*
X112440714Y-89957857D01*
X112297857Y-89815000D01*
X112083571Y-89743571D01*
X111940714Y-89743571D01*
X111726428Y-89815000D01*
X111655000Y-89886428D01*
X110797857Y-90386428D02*
X110940714Y-90315000D01*
X111012142Y-90243571D01*
X111083571Y-90100714D01*
X111083571Y-90029285D01*
X111012142Y-89886428D01*
X110940714Y-89815000D01*
X110797857Y-89743571D01*
X110512142Y-89743571D01*
X110369285Y-89815000D01*
X110297857Y-89886428D01*
X110226428Y-90029285D01*
X110226428Y-90100714D01*
X110297857Y-90243571D01*
X110369285Y-90315000D01*
X110512142Y-90386428D01*
X110797857Y-90386428D01*
X110940714Y-90457857D01*
X111012142Y-90529285D01*
X111083571Y-90672142D01*
X111083571Y-90957857D01*
X111012142Y-91100714D01*
X110940714Y-91172142D01*
X110797857Y-91243571D01*
X110512142Y-91243571D01*
X110369285Y-91172142D01*
X110297857Y-91100714D01*
X110226428Y-90957857D01*
X110226428Y-90672142D01*
X110297857Y-90529285D01*
X110369285Y-90457857D01*
X110512142Y-90386428D01*
X113333571Y-93793571D02*
X113833571Y-93079285D01*
X114190714Y-93793571D02*
X114190714Y-92293571D01*
X113619285Y-92293571D01*
X113476428Y-92365000D01*
X113405000Y-92436428D01*
X113333571Y-92579285D01*
X113333571Y-92793571D01*
X113405000Y-92936428D01*
X113476428Y-93007857D01*
X113619285Y-93079285D01*
X114190714Y-93079285D01*
X112405000Y-92293571D02*
X112119285Y-92293571D01*
X111976428Y-92365000D01*
X111833571Y-92507857D01*
X111762142Y-92793571D01*
X111762142Y-93293571D01*
X111833571Y-93579285D01*
X111976428Y-93722142D01*
X112119285Y-93793571D01*
X112405000Y-93793571D01*
X112547857Y-93722142D01*
X112690714Y-93579285D01*
X112762142Y-93293571D01*
X112762142Y-92793571D01*
X112690714Y-92507857D01*
X112547857Y-92365000D01*
X112405000Y-92293571D01*
X111119285Y-93793571D02*
X111119285Y-92293571D01*
X110619285Y-93365000D01*
X110119285Y-92293571D01*
X110119285Y-93793571D01*
X114797857Y-94843571D02*
X114297857Y-96343571D01*
X113797857Y-94843571D01*
X113012142Y-94843571D02*
X112869285Y-94843571D01*
X112726428Y-94915000D01*
X112655000Y-94986428D01*
X112583571Y-95129285D01*
X112512142Y-95415000D01*
X112512142Y-95772142D01*
X112583571Y-96057857D01*
X112655000Y-96200714D01*
X112726428Y-96272142D01*
X112869285Y-96343571D01*
X113012142Y-96343571D01*
X113155000Y-96272142D01*
X113226428Y-96200714D01*
X113297857Y-96057857D01*
X113369285Y-95772142D01*
X113369285Y-95415000D01*
X113297857Y-95129285D01*
X113226428Y-94986428D01*
X113155000Y-94915000D01*
X113012142Y-94843571D01*
X111583571Y-94843571D02*
X111440714Y-94843571D01*
X111297857Y-94915000D01*
X111226428Y-94986428D01*
X111155000Y-95129285D01*
X111083571Y-95415000D01*
X111083571Y-95772142D01*
X111155000Y-96057857D01*
X111226428Y-96200714D01*
X111297857Y-96272142D01*
X111440714Y-96343571D01*
X111583571Y-96343571D01*
X111726428Y-96272142D01*
X111797857Y-96200714D01*
X111869285Y-96057857D01*
X111940714Y-95772142D01*
X111940714Y-95415000D01*
X111869285Y-95129285D01*
X111797857Y-94986428D01*
X111726428Y-94915000D01*
X111583571Y-94843571D01*
X110512142Y-94986428D02*
X110440714Y-94915000D01*
X110297857Y-94843571D01*
X109940714Y-94843571D01*
X109797857Y-94915000D01*
X109726428Y-94986428D01*
X109655000Y-95129285D01*
X109655000Y-95272142D01*
X109726428Y-95486428D01*
X110583571Y-96343571D01*
X109655000Y-96343571D01*
X123384142Y-90462571D02*
X123384142Y-88962571D01*
X122527000Y-90462571D02*
X123169857Y-89605428D01*
X122527000Y-88962571D02*
X123384142Y-89819714D01*
X121884142Y-90319714D02*
X121812714Y-90391142D01*
X121884142Y-90462571D01*
X121955571Y-90391142D01*
X121884142Y-90319714D01*
X121884142Y-90462571D01*
X120455571Y-90462571D02*
X121169857Y-90462571D01*
X121169857Y-88962571D01*
X119741285Y-90462571D02*
X119884142Y-90391142D01*
X119955571Y-90319714D01*
X120027000Y-90176857D01*
X120027000Y-89748285D01*
X119955571Y-89605428D01*
X119884142Y-89534000D01*
X119741285Y-89462571D01*
X119527000Y-89462571D01*
X119384142Y-89534000D01*
X119312714Y-89605428D01*
X119241285Y-89748285D01*
X119241285Y-90176857D01*
X119312714Y-90319714D01*
X119384142Y-90391142D01*
X119527000Y-90462571D01*
X119741285Y-90462571D01*
X118741285Y-89462571D02*
X118384142Y-90462571D01*
X118027000Y-89462571D02*
X118384142Y-90462571D01*
X118527000Y-90819714D01*
X118598428Y-90891142D01*
X118741285Y-90962571D01*
X123348428Y-91655428D02*
X123277000Y-91584000D01*
X123134142Y-91512571D01*
X122777000Y-91512571D01*
X122634142Y-91584000D01*
X122562714Y-91655428D01*
X122491285Y-91798285D01*
X122491285Y-91941142D01*
X122562714Y-92155428D01*
X123419857Y-93012571D01*
X122491285Y-93012571D01*
X121562714Y-91512571D02*
X121419857Y-91512571D01*
X121277000Y-91584000D01*
X121205571Y-91655428D01*
X121134142Y-91798285D01*
X121062714Y-92084000D01*
X121062714Y-92441142D01*
X121134142Y-92726857D01*
X121205571Y-92869714D01*
X121277000Y-92941142D01*
X121419857Y-93012571D01*
X121562714Y-93012571D01*
X121705571Y-92941142D01*
X121777000Y-92869714D01*
X121848428Y-92726857D01*
X121919857Y-92441142D01*
X121919857Y-92084000D01*
X121848428Y-91798285D01*
X121777000Y-91655428D01*
X121705571Y-91584000D01*
X121562714Y-91512571D01*
X120491285Y-91655428D02*
X120419857Y-91584000D01*
X120277000Y-91512571D01*
X119919857Y-91512571D01*
X119777000Y-91584000D01*
X119705571Y-91655428D01*
X119634142Y-91798285D01*
X119634142Y-91941142D01*
X119705571Y-92155428D01*
X120562714Y-93012571D01*
X119634142Y-93012571D01*
X118205571Y-93012571D02*
X119062714Y-93012571D01*
X118634142Y-93012571D02*
X118634142Y-91512571D01*
X118777000Y-91726857D01*
X118919857Y-91869714D01*
X119062714Y-91941142D01*
X166703428Y-115613571D02*
X167560571Y-115613571D01*
X167132000Y-115613571D02*
X167132000Y-114113571D01*
X167274857Y-114327857D01*
X167417714Y-114470714D01*
X167560571Y-114542142D01*
D11*
%TO.P,C1,2*%
%TO.N,VCC*%
X105410000Y-89361000D03*
%TO.P,C1,1*%
%TO.N,GND*%
X105410000Y-94361000D03*
%TD*%
%TO.P,C2,1*%
%TO.N,GND*%
X154432000Y-107823000D03*
%TO.P,C2,2*%
%TO.N,VCC*%
X149432000Y-107823000D03*
%TD*%
D12*
%TO.P,J1,1*%
%TO.N,Net-(J1-Pad1)*%
X165735000Y-119761000D03*
%TO.P,J1,2*%
%TO.N,/A0*%
X163195000Y-119761000D03*
%TO.P,J1,3*%
%TO.N,/A1*%
X160655000Y-119761000D03*
%TO.P,J1,11*%
%TO.N,/A8*%
X140335000Y-119761000D03*
%TO.P,J1,12*%
%TO.N,/A9*%
X137795000Y-119761000D03*
%TO.P,J1,13*%
%TO.N,/A10*%
X135255000Y-119761000D03*
%TO.P,J1,14*%
%TO.N,/A11*%
X132715000Y-119761000D03*
%TO.P,J1,10*%
%TO.N,/A7*%
X142875000Y-119761000D03*
%TO.P,J1,4*%
%TO.N,/A2*%
X158115000Y-119761000D03*
%TO.P,J1,5*%
%TO.N,/A3*%
X155575000Y-119761000D03*
%TO.P,J1,6*%
%TO.N,/A4*%
X153035000Y-119761000D03*
%TO.P,J1,7*%
%TO.N,/A5*%
X150495000Y-119761000D03*
%TO.P,J1,8*%
%TO.N,VCC*%
X147955000Y-119761000D03*
%TO.P,J1,9*%
%TO.N,/A6*%
X145415000Y-119761000D03*
%TO.P,J1,15*%
%TO.N,GND*%
X130175000Y-119761000D03*
%TD*%
D13*
%TO.P,U1,28*%
%TO.N,VCC*%
X154076400Y-85648800D03*
%TO.P,U1,14*%
%TO.N,GND*%
X187096400Y-100888800D03*
%TO.P,U1,27*%
%TO.N,VCC*%
X156616400Y-85648800D03*
%TO.P,U1,13*%
%TO.N,/D2*%
X184556400Y-100888800D03*
%TO.P,U1,26*%
%TO.N,Net-(U1-Pad26)*%
X159156400Y-85648800D03*
%TO.P,U1,12*%
%TO.N,/D1*%
X182016400Y-100888800D03*
%TO.P,U1,25*%
%TO.N,/A8*%
X161696400Y-85648800D03*
%TO.P,U1,11*%
%TO.N,/D0*%
X179476400Y-100888800D03*
%TO.P,U1,24*%
%TO.N,/A9*%
X164236400Y-85648800D03*
%TO.P,U1,10*%
%TO.N,/A0*%
X176936400Y-100888800D03*
%TO.P,U1,23*%
%TO.N,/A11*%
X166776400Y-85648800D03*
%TO.P,U1,9*%
%TO.N,/A1*%
X174396400Y-100888800D03*
%TO.P,U1,22*%
%TO.N,/OE#*%
X169316400Y-85648800D03*
%TO.P,U1,8*%
%TO.N,/A2*%
X171856400Y-100888800D03*
%TO.P,U1,21*%
%TO.N,/A10*%
X171856400Y-85648800D03*
%TO.P,U1,7*%
%TO.N,/A3*%
X169316400Y-100888800D03*
%TO.P,U1,20*%
%TO.N,/CS1#*%
X174396400Y-85648800D03*
%TO.P,U1,6*%
%TO.N,/A4*%
X166776400Y-100888800D03*
%TO.P,U1,19*%
%TO.N,/D7*%
X176936400Y-85648800D03*
%TO.P,U1,5*%
%TO.N,/A5*%
X164236400Y-100888800D03*
%TO.P,U1,18*%
%TO.N,/D6*%
X179476400Y-85648800D03*
%TO.P,U1,4*%
%TO.N,/A6*%
X161696400Y-100888800D03*
%TO.P,U1,17*%
%TO.N,/D5*%
X182016400Y-85648800D03*
%TO.P,U1,3*%
%TO.N,/A7*%
X159156400Y-100888800D03*
%TO.P,U1,16*%
%TO.N,/D4*%
X184556400Y-85648800D03*
%TO.P,U1,2*%
%TO.N,/A12*%
X156616400Y-100888800D03*
%TO.P,U1,15*%
%TO.N,/D3*%
X187096400Y-85648800D03*
D14*
%TO.P,U1,1*%
%TO.N,VCC*%
X154076400Y-100888800D03*
%TD*%
%TO.P,U2,1*%
%TO.N,VCC*%
X108813600Y-100888800D03*
D13*
%TO.P,U2,15*%
%TO.N,/D3*%
X141833600Y-85648800D03*
%TO.P,U2,2*%
%TO.N,/A12*%
X111353600Y-100888800D03*
%TO.P,U2,16*%
%TO.N,/D4*%
X139293600Y-85648800D03*
%TO.P,U2,3*%
%TO.N,/A7*%
X113893600Y-100888800D03*
%TO.P,U2,17*%
%TO.N,/D5*%
X136753600Y-85648800D03*
%TO.P,U2,4*%
%TO.N,/A6*%
X116433600Y-100888800D03*
%TO.P,U2,18*%
%TO.N,/D6*%
X134213600Y-85648800D03*
%TO.P,U2,5*%
%TO.N,/A5*%
X118973600Y-100888800D03*
%TO.P,U2,19*%
%TO.N,/D7*%
X131673600Y-85648800D03*
%TO.P,U2,6*%
%TO.N,/A4*%
X121513600Y-100888800D03*
%TO.P,U2,20*%
%TO.N,/CS2#*%
X129133600Y-85648800D03*
%TO.P,U2,7*%
%TO.N,/A3*%
X124053600Y-100888800D03*
%TO.P,U2,21*%
%TO.N,/A10*%
X126593600Y-85648800D03*
%TO.P,U2,8*%
%TO.N,/A2*%
X126593600Y-100888800D03*
%TO.P,U2,22*%
%TO.N,/OE#*%
X124053600Y-85648800D03*
%TO.P,U2,9*%
%TO.N,/A1*%
X129133600Y-100888800D03*
%TO.P,U2,23*%
%TO.N,/A11*%
X121513600Y-85648800D03*
%TO.P,U2,10*%
%TO.N,/A0*%
X131673600Y-100888800D03*
%TO.P,U2,24*%
%TO.N,/A9*%
X118973600Y-85648800D03*
%TO.P,U2,11*%
%TO.N,/D0*%
X134213600Y-100888800D03*
%TO.P,U2,25*%
%TO.N,/A8*%
X116433600Y-85648800D03*
%TO.P,U2,12*%
%TO.N,/D1*%
X136753600Y-100888800D03*
%TO.P,U2,26*%
%TO.N,Net-(U2-Pad26)*%
X113893600Y-85648800D03*
%TO.P,U2,13*%
%TO.N,/D2*%
X139293600Y-100888800D03*
%TO.P,U2,27*%
%TO.N,VCC*%
X111353600Y-85648800D03*
%TO.P,U2,14*%
%TO.N,GND*%
X141833600Y-100888800D03*
%TO.P,U2,28*%
%TO.N,VCC*%
X108813600Y-85648800D03*
%TD*%
D15*
%TO.N,VCC*%
X147980400Y-113639600D03*
%TO.N,GND*%
X184531000Y-104775000D03*
X167259000Y-110871000D03*
X129921000Y-113385600D03*
%TO.N,Net-(J1-Pad1)*%
X165252400Y-111760000D03*
%TO.N,/A0*%
X131699000Y-93218000D03*
%TO.N,/A1*%
X129159000Y-93726000D03*
%TO.N,/A8*%
X176911000Y-95377000D03*
X113665000Y-103505000D03*
%TO.N,/A9*%
X178308000Y-93218000D03*
X111252000Y-104902000D03*
%TO.N,/A10*%
X176530000Y-91694000D03*
X114935000Y-107315000D03*
%TO.N,/A11*%
X171958000Y-92964000D03*
%TO.N,/D0*%
X151511000Y-100965000D03*
%TO.N,/D5*%
X185674000Y-87757000D03*
%TO.N,/OE#*%
X174244000Y-92202000D03*
%TO.N,/A7*%
X113919000Y-97917000D03*
%TO.N,/D6*%
X183388000Y-89916000D03*
%TO.N,/D7*%
X181737000Y-91440000D03*
%TO.N,/A2*%
X126619000Y-94615000D03*
%TO.N,/A3*%
X124079000Y-94742000D03*
%TO.N,/A4*%
X121539000Y-96012000D03*
%TO.N,/A5*%
X118999000Y-96774000D03*
%TO.N,/A6*%
X116459000Y-96774000D03*
%TD*%
D16*
%TO.N,VCC*%
X147955000Y-107010200D02*
X154076400Y-100888800D01*
X148285200Y-106680000D02*
X147955000Y-107010200D01*
X148082000Y-107823000D02*
X147955000Y-107950000D01*
X149432000Y-107823000D02*
X148082000Y-107823000D01*
X147955000Y-107950000D02*
X147955000Y-107010200D01*
X147980400Y-119735600D02*
X147955000Y-119761000D01*
X147980400Y-113639600D02*
X147980400Y-119735600D01*
X147980400Y-107924600D02*
X148082000Y-107823000D01*
X147980400Y-113639600D02*
X147980400Y-107924600D01*
D17*
%TO.N,GND*%
X130175000Y-120015000D02*
X130175000Y-118825000D01*
D16*
X191643000Y-100888800D02*
X192000000Y-101245800D01*
X187096400Y-100888800D02*
X191643000Y-100888800D01*
X105410000Y-94361000D02*
X104013000Y-94361000D01*
X184531000Y-104775000D02*
X184531000Y-110998000D01*
X191922400Y-110871000D02*
X192000000Y-101245800D01*
X167259000Y-110871000D02*
X191922400Y-110871000D01*
X191973200Y-80848200D02*
X192000000Y-101245800D01*
X103886000Y-80899000D02*
X191973200Y-80848200D01*
X103886000Y-91186000D02*
X103886000Y-80899000D01*
X104013000Y-94361000D02*
X103886000Y-91186000D01*
X130175000Y-115316000D02*
X130175000Y-120015000D01*
X129921000Y-113385600D02*
X130175000Y-115316000D01*
X104013000Y-111252000D02*
X104013000Y-94361000D01*
X128905000Y-111252000D02*
X104013000Y-111252000D01*
X129463800Y-112344200D02*
X128905000Y-111252000D01*
X129921000Y-113385600D02*
X129463800Y-112344200D01*
D18*
%TO.N,Net-(J1-Pad1)*%
X165735000Y-112242600D02*
X165252400Y-111760000D01*
X165735000Y-120015000D02*
X165735000Y-112242600D01*
X165649999Y-119929999D02*
X165735000Y-120015000D01*
%TO.N,/A0*%
X163195000Y-111666998D02*
X163195000Y-120015000D01*
X165989000Y-108458000D02*
X163195000Y-111666998D01*
X173863000Y-108458000D02*
X165989000Y-108458000D01*
X176936400Y-100888800D02*
X173863000Y-108458000D01*
X132262950Y-93781950D02*
X131699000Y-93218000D01*
X169829550Y-93781950D02*
X132262950Y-93781950D01*
X176936400Y-100888800D02*
X169829550Y-93781950D01*
%TO.N,/A1*%
X160655000Y-110834478D02*
X160655000Y-120015000D01*
X164719000Y-107188000D02*
X160655000Y-110834478D01*
X172720000Y-107188000D02*
X164719000Y-107188000D01*
X174396400Y-100888800D02*
X172720000Y-107188000D01*
X129914960Y-94481960D02*
X129159000Y-93726000D01*
X167989560Y-94481960D02*
X129914960Y-94481960D01*
X174396400Y-100888800D02*
X167989560Y-94481960D01*
%TO.N,/A8*%
X119851410Y-82230990D02*
X116433600Y-85648800D01*
X120142000Y-81915000D02*
X119851410Y-82230990D01*
X190246000Y-93091000D02*
X190246000Y-82804000D01*
X185928000Y-95377000D02*
X190246000Y-93091000D01*
X189357000Y-81915000D02*
X120142000Y-81915000D01*
X190246000Y-82804000D02*
X189357000Y-81915000D01*
X176911000Y-95377000D02*
X185928000Y-95377000D01*
X140335000Y-116967000D02*
X140335000Y-120015000D01*
X129286000Y-104394000D02*
X140208000Y-115189000D01*
X114808000Y-104394000D02*
X129286000Y-104394000D01*
X113665000Y-103505000D02*
X114808000Y-104394000D01*
X140335000Y-115316000D02*
X140208000Y-115189000D01*
X140335000Y-120015000D02*
X140335000Y-115316000D01*
%TO.N,/A9*%
X121666000Y-82931000D02*
X118973600Y-85648800D01*
X188087000Y-82931000D02*
X121666000Y-82931000D01*
X188976000Y-83820000D02*
X188087000Y-82931000D01*
X188976000Y-92075000D02*
X188976000Y-83820000D01*
X183769000Y-93218000D02*
X188976000Y-92075000D01*
X178308000Y-93218000D02*
X183769000Y-93218000D01*
X112014000Y-105664000D02*
X111252000Y-104902000D01*
X116332000Y-105664000D02*
X112014000Y-105664000D01*
X116713000Y-106045000D02*
X116332000Y-105664000D01*
X128651000Y-106045000D02*
X116713000Y-106045000D01*
X137795000Y-115443000D02*
X128651000Y-106045000D01*
X137795000Y-120015000D02*
X137795000Y-115443000D01*
%TO.N,/A10*%
X134874000Y-114427000D02*
X127762000Y-107315000D01*
X127762000Y-107315000D02*
X114935000Y-107315000D01*
X135255000Y-120015000D02*
X134874000Y-114427000D01*
X132207000Y-90043000D02*
X126593600Y-85648800D01*
X175514000Y-90043000D02*
X132207000Y-90043000D01*
X176530000Y-91694000D02*
X175514000Y-90043000D01*
%TO.N,/A11*%
X122047000Y-86868000D02*
X121513600Y-85648800D01*
X129540000Y-91821000D02*
X122047000Y-86868000D01*
X170942000Y-91821000D02*
X129540000Y-91821000D01*
X171958000Y-92964000D02*
X170942000Y-91821000D01*
X119024400Y-88138000D02*
X121513600Y-85648800D01*
X109855000Y-88138000D02*
X119024400Y-88138000D01*
X106934000Y-91059000D02*
X109855000Y-88138000D01*
X106934000Y-107315000D02*
X106934000Y-91059000D01*
X109347000Y-109728000D02*
X106934000Y-107315000D01*
X128905000Y-109728000D02*
X109347000Y-109728000D01*
X132715000Y-113665000D02*
X128905000Y-109728000D01*
X132715000Y-120015000D02*
X132715000Y-113665000D01*
%TO.N,/D0*%
X137337800Y-104013000D02*
X134213600Y-100888800D01*
X147320000Y-104013000D02*
X137337800Y-104013000D01*
X151511000Y-100965000D02*
X147320000Y-104013000D01*
%TO.N,/D3*%
X143662400Y-83820000D02*
X141833600Y-85648800D01*
X186309000Y-83820000D02*
X143662400Y-83820000D01*
X187096400Y-85648800D02*
X186309000Y-83820000D01*
%TO.N,/D4*%
X139293600Y-86588600D02*
X139293600Y-85648800D01*
X139319000Y-86995000D02*
X139293600Y-86588600D01*
X183642000Y-86995000D02*
X139319000Y-86995000D01*
X184556400Y-86461600D02*
X183642000Y-86995000D01*
X184556400Y-85648800D02*
X184556400Y-86461600D01*
%TO.N,/D5*%
X136753600Y-87223600D02*
X136753600Y-85648800D01*
X137795000Y-87757000D02*
X136753600Y-87223600D01*
X185674000Y-87757000D02*
X137795000Y-87757000D01*
%TO.N,/OE#*%
X129921000Y-90932000D02*
X124053600Y-85648800D01*
X172591890Y-90933110D02*
X129921000Y-90932000D01*
X174244000Y-92202000D02*
X172591890Y-90933110D01*
%TO.N,/A12*%
X111912400Y-99542600D02*
X111353600Y-100888800D01*
X155342599Y-99614999D02*
X111912400Y-99542600D01*
X156616400Y-100888800D02*
X155342599Y-99614999D01*
%TO.N,/A7*%
X142875000Y-115570000D02*
X142875000Y-120015000D01*
X130429000Y-103505000D02*
X142875000Y-115570000D01*
X115316000Y-103505000D02*
X130429000Y-103505000D01*
X113893600Y-100888800D02*
X115316000Y-103505000D01*
X157403800Y-99136200D02*
X159156400Y-100888800D01*
X157073600Y-98806000D02*
X157403800Y-99136200D01*
X115570000Y-98806000D02*
X157073600Y-98806000D01*
X115189000Y-98425000D02*
X115570000Y-98806000D01*
X113919000Y-97917000D02*
X115189000Y-98425000D01*
%TO.N,/D6*%
X182245000Y-88519000D02*
X183388000Y-89916000D01*
X136271000Y-88519000D02*
X182245000Y-88519000D01*
X134213600Y-87223600D02*
X136271000Y-88519000D01*
X134213600Y-85648800D02*
X134213600Y-87223600D01*
%TO.N,/D7*%
X131699000Y-88265000D02*
X131673600Y-85648800D01*
X133350000Y-89281000D02*
X131699000Y-88265000D01*
X180975000Y-89281000D02*
X133350000Y-89281000D01*
X181737000Y-91440000D02*
X180975000Y-89281000D01*
%TO.N,/A2*%
X158369000Y-111506000D02*
X158115000Y-120015000D01*
X163449000Y-105918000D02*
X158369000Y-111506000D01*
X170815000Y-105918000D02*
X163449000Y-105918000D01*
X171856400Y-100888800D02*
X170815000Y-105918000D01*
X127185970Y-95181970D02*
X126619000Y-94615000D01*
X166149570Y-95181970D02*
X127185970Y-95181970D01*
X171856400Y-100888800D02*
X166149570Y-95181970D01*
%TO.N,/A3*%
X155575000Y-112783654D02*
X155575000Y-120015000D01*
X163195000Y-104775000D02*
X155575000Y-112783654D01*
X168656000Y-104775000D02*
X163195000Y-104775000D01*
X169316400Y-100888800D02*
X168656000Y-104775000D01*
X125218980Y-95881980D02*
X124079000Y-94742000D01*
X164309580Y-95881980D02*
X125218980Y-95881980D01*
X169316400Y-100888800D02*
X164309580Y-95881980D01*
%TO.N,/A4*%
X153035000Y-113285170D02*
X153035000Y-120015000D01*
X162516763Y-103803407D02*
X153035000Y-113285170D01*
X166243000Y-103803407D02*
X162516763Y-103803407D01*
X166776400Y-100888800D02*
X166243000Y-103803407D01*
X122108990Y-96581990D02*
X121539000Y-96012000D01*
X162469590Y-96581990D02*
X122108990Y-96581990D01*
X166776400Y-100888800D02*
X162469590Y-96581990D01*
%TO.N,/A5*%
X150495000Y-114630200D02*
X150495000Y-120015000D01*
X164236400Y-100888800D02*
X150495000Y-114630200D01*
X161760970Y-97282000D02*
X119507000Y-97282000D01*
X164236400Y-99757430D02*
X161760970Y-97282000D01*
X119507000Y-97282000D02*
X118999000Y-96774000D01*
X164236400Y-100888800D02*
X164236400Y-99757430D01*
%TO.N,/A6*%
X117983000Y-102489000D02*
X116433600Y-100888800D01*
X131572000Y-102489000D02*
X117983000Y-102489000D01*
X145415000Y-115959000D02*
X131572000Y-102489000D01*
X145415000Y-120015000D02*
X145415000Y-115959000D01*
X117983000Y-98044000D02*
X116459000Y-96774000D01*
X160274000Y-98044000D02*
X117983000Y-98044000D01*
X161696400Y-99085400D02*
X160274000Y-98044000D01*
X161696400Y-100888800D02*
X161696400Y-99085400D01*
%TD*%
M02*
