%TF.GenerationSoftware,KiCad,Pcbnew,(5.1.8)-1*%
%TF.CreationDate,2021-01-24T18:09:35+01:00*%
%TF.ProjectId,Alphatronic_PC8_ROM-Modul,416c7068-6174-4726-9f6e-69635f504338,2*%
%TF.SameCoordinates,Original*%
%TF.FileFunction,Copper,L1,Top*%
%TF.FilePolarity,Positive*%
%FSLAX46Y46*%
G04 Gerber Fmt 4.6, Leading zero omitted, Abs format (unit mm)*
G04 Created by KiCad (PCBNEW (5.1.8)-1) date 2021-01-24 18:09:35*
%MOMM*%
%LPD*%
G01*
G04 APERTURE LIST*
%TA.AperFunction,ComponentPad*%
%ADD10C,1.600000*%
%TD*%
%TA.AperFunction,ConnectorPad*%
%ADD11R,1.778000X7.112000*%
%TD*%
%TA.AperFunction,ComponentPad*%
%ADD12O,1.600000X1.600000*%
%TD*%
%TA.AperFunction,ComponentPad*%
%ADD13R,1.600000X1.600000*%
%TD*%
%TA.AperFunction,ViaPad*%
%ADD14C,1.400000*%
%TD*%
%TA.AperFunction,Conductor*%
%ADD15C,1.000000*%
%TD*%
%TA.AperFunction,Conductor*%
%ADD16C,0.500000*%
%TD*%
G04 APERTURE END LIST*
D10*
%TO.P,C1,2*%
%TO.N,VCC*%
X105410000Y-89361000D03*
%TO.P,C1,1*%
%TO.N,GND*%
X105410000Y-94361000D03*
%TD*%
%TO.P,C2,1*%
%TO.N,GND*%
X154432000Y-107823000D03*
%TO.P,C2,2*%
%TO.N,VCC*%
X149432000Y-107823000D03*
%TD*%
D11*
%TO.P,J1,17*%
%TO.N,/CS1#*%
X163195000Y-119761000D03*
%TO.P,J1,18*%
%TO.N,/D0*%
X160655000Y-119761000D03*
%TO.P,J1,19*%
%TO.N,/D1*%
X158115000Y-119761000D03*
%TO.P,J1,20*%
%TO.N,/D2*%
X155575000Y-119761000D03*
%TO.P,J1,21*%
%TO.N,/D3*%
X153035000Y-119761000D03*
%TO.P,J1,22*%
%TO.N,/D4*%
X150495000Y-119761000D03*
%TO.P,J1,23*%
%TO.N,VCC*%
X147955000Y-119761000D03*
%TO.P,J1,24*%
%TO.N,/D5*%
X145415000Y-119761000D03*
%TO.P,J1,27*%
%TO.N,/CS2#*%
X137795000Y-119761000D03*
%TO.P,J1,28*%
%TO.N,/OE#*%
X135255000Y-119761000D03*
%TO.P,J1,29*%
%TO.N,/A12*%
X132715000Y-119761000D03*
%TO.P,J1,30*%
%TO.N,GND*%
X130175000Y-119761000D03*
%TO.P,J1,16*%
X165735000Y-119761000D03*
%TO.P,J1,25*%
%TO.N,/D6*%
X142875000Y-119761000D03*
%TO.P,J1,26*%
%TO.N,/D7*%
X140335000Y-119761000D03*
%TD*%
D12*
%TO.P,U1,28*%
%TO.N,VCC*%
X154076400Y-85648800D03*
%TO.P,U1,14*%
%TO.N,GND*%
X187096400Y-100888800D03*
%TO.P,U1,27*%
%TO.N,VCC*%
X156616400Y-85648800D03*
%TO.P,U1,13*%
%TO.N,/D2*%
X184556400Y-100888800D03*
%TO.P,U1,26*%
%TO.N,Net-(U1-Pad26)*%
X159156400Y-85648800D03*
%TO.P,U1,12*%
%TO.N,/D1*%
X182016400Y-100888800D03*
%TO.P,U1,25*%
%TO.N,/A8*%
X161696400Y-85648800D03*
%TO.P,U1,11*%
%TO.N,/D0*%
X179476400Y-100888800D03*
%TO.P,U1,24*%
%TO.N,/A9*%
X164236400Y-85648800D03*
%TO.P,U1,10*%
%TO.N,/A0*%
X176936400Y-100888800D03*
%TO.P,U1,23*%
%TO.N,/A11*%
X166776400Y-85648800D03*
%TO.P,U1,9*%
%TO.N,/A1*%
X174396400Y-100888800D03*
%TO.P,U1,22*%
%TO.N,/OE#*%
X169316400Y-85648800D03*
%TO.P,U1,8*%
%TO.N,/A2*%
X171856400Y-100888800D03*
%TO.P,U1,21*%
%TO.N,/A10*%
X171856400Y-85648800D03*
%TO.P,U1,7*%
%TO.N,/A3*%
X169316400Y-100888800D03*
%TO.P,U1,20*%
%TO.N,/CS1#*%
X174396400Y-85648800D03*
%TO.P,U1,6*%
%TO.N,/A4*%
X166776400Y-100888800D03*
%TO.P,U1,19*%
%TO.N,/D7*%
X176936400Y-85648800D03*
%TO.P,U1,5*%
%TO.N,/A5*%
X164236400Y-100888800D03*
%TO.P,U1,18*%
%TO.N,/D6*%
X179476400Y-85648800D03*
%TO.P,U1,4*%
%TO.N,/A6*%
X161696400Y-100888800D03*
%TO.P,U1,17*%
%TO.N,/D5*%
X182016400Y-85648800D03*
%TO.P,U1,3*%
%TO.N,/A7*%
X159156400Y-100888800D03*
%TO.P,U1,16*%
%TO.N,/D4*%
X184556400Y-85648800D03*
%TO.P,U1,2*%
%TO.N,/A12*%
X156616400Y-100888800D03*
%TO.P,U1,15*%
%TO.N,/D3*%
X187096400Y-85648800D03*
D13*
%TO.P,U1,1*%
%TO.N,VCC*%
X154076400Y-100888800D03*
%TD*%
%TO.P,U2,1*%
%TO.N,VCC*%
X108813600Y-100888800D03*
D12*
%TO.P,U2,15*%
%TO.N,/D3*%
X141833600Y-85648800D03*
%TO.P,U2,2*%
%TO.N,/A12*%
X111353600Y-100888800D03*
%TO.P,U2,16*%
%TO.N,/D4*%
X139293600Y-85648800D03*
%TO.P,U2,3*%
%TO.N,/A7*%
X113893600Y-100888800D03*
%TO.P,U2,17*%
%TO.N,/D5*%
X136753600Y-85648800D03*
%TO.P,U2,4*%
%TO.N,/A6*%
X116433600Y-100888800D03*
%TO.P,U2,18*%
%TO.N,/D6*%
X134213600Y-85648800D03*
%TO.P,U2,5*%
%TO.N,/A5*%
X118973600Y-100888800D03*
%TO.P,U2,19*%
%TO.N,/D7*%
X131673600Y-85648800D03*
%TO.P,U2,6*%
%TO.N,/A4*%
X121513600Y-100888800D03*
%TO.P,U2,20*%
%TO.N,/CS2#*%
X129133600Y-85648800D03*
%TO.P,U2,7*%
%TO.N,/A3*%
X124053600Y-100888800D03*
%TO.P,U2,21*%
%TO.N,/A10*%
X126593600Y-85648800D03*
%TO.P,U2,8*%
%TO.N,/A2*%
X126593600Y-100888800D03*
%TO.P,U2,22*%
%TO.N,/OE#*%
X124053600Y-85648800D03*
%TO.P,U2,9*%
%TO.N,/A1*%
X129133600Y-100888800D03*
%TO.P,U2,23*%
%TO.N,/A11*%
X121513600Y-85648800D03*
%TO.P,U2,10*%
%TO.N,/A0*%
X131673600Y-100888800D03*
%TO.P,U2,24*%
%TO.N,/A9*%
X118973600Y-85648800D03*
%TO.P,U2,11*%
%TO.N,/D0*%
X134213600Y-100888800D03*
%TO.P,U2,25*%
%TO.N,/A8*%
X116433600Y-85648800D03*
%TO.P,U2,12*%
%TO.N,/D1*%
X136753600Y-100888800D03*
%TO.P,U2,26*%
%TO.N,Net-(U2-Pad26)*%
X113893600Y-85648800D03*
%TO.P,U2,13*%
%TO.N,/D2*%
X139293600Y-100888800D03*
%TO.P,U2,27*%
%TO.N,VCC*%
X111353600Y-85648800D03*
%TO.P,U2,14*%
%TO.N,GND*%
X141833600Y-100888800D03*
%TO.P,U2,28*%
%TO.N,VCC*%
X108813600Y-85648800D03*
%TD*%
D14*
%TO.N,VCC*%
X147980400Y-113639600D03*
%TO.N,GND*%
X184531000Y-104775000D03*
X167259000Y-110871000D03*
X129921000Y-113385600D03*
%TO.N,Net-(J1-Pad1)*%
X165252400Y-111760000D03*
%TO.N,/A0*%
X131699000Y-93218000D03*
%TO.N,/A1*%
X129159000Y-93726000D03*
%TO.N,/A8*%
X176911000Y-95377000D03*
X113665000Y-103505000D03*
%TO.N,/A9*%
X178308000Y-93218000D03*
X111252000Y-104902000D03*
%TO.N,/A10*%
X176530000Y-91694000D03*
X114935000Y-107315000D03*
%TO.N,/A11*%
X171958000Y-92964000D03*
%TO.N,/D0*%
X151511000Y-100965000D03*
%TO.N,/D5*%
X185674000Y-87757000D03*
%TO.N,/OE#*%
X174244000Y-92202000D03*
%TO.N,/A7*%
X113919000Y-97917000D03*
%TO.N,/D6*%
X183388000Y-89916000D03*
%TO.N,/D7*%
X181737000Y-91440000D03*
%TO.N,/A2*%
X126619000Y-94615000D03*
%TO.N,/A3*%
X124079000Y-94742000D03*
%TO.N,/A4*%
X121539000Y-96012000D03*
%TO.N,/A5*%
X118999000Y-96774000D03*
%TO.N,/A6*%
X116459000Y-96774000D03*
%TD*%
D15*
%TO.N,VCC*%
X156616400Y-85648800D02*
X156616400Y-83337400D01*
X156616400Y-83337400D02*
X155702000Y-82423000D01*
X108813600Y-83337400D02*
X108813600Y-85648800D01*
X109728000Y-82423000D02*
X108813600Y-83337400D01*
X111353600Y-82702400D02*
X111633000Y-82423000D01*
X111353600Y-85648800D02*
X111353600Y-82702400D01*
X111633000Y-82423000D02*
X109728000Y-82423000D01*
X154076400Y-82524600D02*
X154178000Y-82423000D01*
X154178000Y-82423000D02*
X111633000Y-82423000D01*
X154076400Y-85648800D02*
X154076400Y-82524600D01*
X155702000Y-82423000D02*
X154178000Y-82423000D01*
X105410000Y-89361000D02*
X105410000Y-83058000D01*
X106045000Y-82423000D02*
X105410000Y-83058000D01*
X109728000Y-82423000D02*
X106045000Y-82423000D01*
X108813600Y-92764600D02*
X105410000Y-89361000D01*
X108813600Y-100888800D02*
X108813600Y-92764600D01*
X154076400Y-100888800D02*
X154076400Y-85648800D01*
X147980400Y-119735600D02*
X147955000Y-119761000D01*
X147980400Y-113639600D02*
X147980400Y-119735600D01*
%TO.N,GND*%
X144780000Y-105156000D02*
X141833600Y-100888800D01*
X184531000Y-104775000D02*
X183580990Y-105156000D01*
X183580990Y-105156000D02*
X155702000Y-105156000D01*
X165735000Y-114265000D02*
X165735000Y-120015000D01*
X154432000Y-105410000D02*
X154178000Y-105156000D01*
X154432000Y-107823000D02*
X154432000Y-105410000D01*
X154178000Y-105156000D02*
X144780000Y-105156000D01*
X155702000Y-105156000D02*
X154178000Y-105156000D01*
D16*
X167259000Y-112741000D02*
X167259000Y-110871000D01*
X165735000Y-114265000D02*
X167259000Y-112741000D01*
D15*
X130175000Y-115316000D02*
X130175000Y-120015000D01*
X129921000Y-113385600D02*
X130175000Y-115316000D01*
D16*
%TO.N,/A0*%
X131673600Y-93243400D02*
X131699000Y-93218000D01*
X131673600Y-100888800D02*
X131673600Y-93243400D01*
%TO.N,/A1*%
X129159000Y-99732030D02*
X129159000Y-93726000D01*
X129133600Y-99757430D02*
X129159000Y-99732030D01*
X129133600Y-100888800D02*
X129133600Y-99757430D01*
%TO.N,/A8*%
X161798000Y-89535000D02*
X161696400Y-85648800D01*
X169545000Y-95377000D02*
X161798000Y-89535000D01*
X176911000Y-95377000D02*
X169545000Y-95377000D01*
X112603601Y-89478799D02*
X112603601Y-102570601D01*
X116433600Y-85648800D02*
X112603601Y-89478799D01*
X112603601Y-102570601D02*
X113538000Y-103505000D01*
%TO.N,/A9*%
X164236400Y-89433400D02*
X164236400Y-85648800D01*
X171196000Y-94488000D02*
X164236400Y-89433400D01*
X172974000Y-94488000D02*
X171196000Y-94488000D01*
X178308000Y-93218000D02*
X172974000Y-94488000D01*
X115183599Y-89438801D02*
X118973600Y-85648800D01*
X115183599Y-103984403D02*
X115183599Y-89438801D01*
X114313001Y-104855001D02*
X115183599Y-103984403D01*
X111298999Y-104855001D02*
X114313001Y-104855001D01*
%TO.N,/A10*%
X171856400Y-87528400D02*
X171856400Y-85648800D01*
X176530000Y-91694000D02*
X171856400Y-87528400D01*
X120269000Y-107315000D02*
X114935000Y-107315000D01*
X120263599Y-103476403D02*
X120269000Y-107315000D01*
X120263599Y-91978801D02*
X120263599Y-103476403D01*
X126593600Y-85648800D02*
X120263599Y-91978801D01*
%TO.N,/A11*%
X166776400Y-89306400D02*
X166776400Y-85648800D01*
X171958000Y-92964000D02*
X166776400Y-89306400D01*
%TO.N,/CS1#*%
X163195000Y-110642400D02*
X163195000Y-120015000D01*
X164541200Y-109296200D02*
X163195000Y-110642400D01*
X189280800Y-109296200D02*
X164541200Y-109296200D01*
X191998600Y-106578400D02*
X189280800Y-109296200D01*
X191998600Y-94640400D02*
X191998600Y-106578400D01*
X190449200Y-93091000D02*
X191998600Y-94640400D01*
X180721000Y-93091000D02*
X190449200Y-93091000D01*
X174396400Y-88290400D02*
X180721000Y-93091000D01*
X174396400Y-85648800D02*
X174396400Y-88290400D01*
%TO.N,/D0*%
X160655000Y-115062000D02*
X160655000Y-120015000D01*
X160655000Y-112192438D02*
X160655000Y-115062000D01*
X164084000Y-108331000D02*
X160655000Y-112192438D01*
X188087000Y-108331000D02*
X164084000Y-108331000D01*
X189738000Y-106045000D02*
X188087000Y-108331000D01*
X189738000Y-99568000D02*
X189738000Y-106045000D01*
X188595000Y-98171000D02*
X189738000Y-99568000D01*
X180721000Y-98171000D02*
X188595000Y-98171000D01*
X179476400Y-99542600D02*
X180721000Y-98171000D01*
X179476400Y-100888800D02*
X179476400Y-99542600D01*
X178028600Y-102336600D02*
X179476400Y-100888800D01*
X151892000Y-102362000D02*
X178028600Y-102336600D01*
X151892000Y-101346000D02*
X151511000Y-100965000D01*
X151892000Y-102362000D02*
X151892000Y-101346000D01*
%TO.N,/D1*%
X183261000Y-99314000D02*
X182016400Y-100888800D01*
X188341000Y-99314000D02*
X183261000Y-99314000D01*
X188849000Y-99695000D02*
X188341000Y-99314000D01*
X188849000Y-105664000D02*
X188849000Y-99695000D01*
X187452000Y-107442000D02*
X188849000Y-105664000D01*
X163571158Y-107437158D02*
X187452000Y-107442000D01*
X158115000Y-112893317D02*
X163571158Y-107437158D01*
X158115000Y-120015000D02*
X158115000Y-112893317D01*
X137922000Y-95250000D02*
X136753600Y-100888800D01*
X148971000Y-95250000D02*
X137922000Y-95250000D01*
X150160999Y-96439999D02*
X148971000Y-95250000D01*
X150160999Y-103043999D02*
X150160999Y-96439999D01*
X150368000Y-103251000D02*
X150160999Y-103043999D01*
X179654200Y-103251000D02*
X150368000Y-103251000D01*
X182016400Y-100888800D02*
X179654200Y-103251000D01*
%TO.N,/D2*%
X186817000Y-103149400D02*
X184556400Y-100888800D01*
X186817000Y-106299000D02*
X186817000Y-103149400D01*
X163195000Y-106299000D02*
X186817000Y-106299000D01*
X155575000Y-113665000D02*
X163195000Y-106299000D01*
X155575000Y-120015000D02*
X155575000Y-113665000D01*
X139293600Y-99847400D02*
X139293600Y-100888800D01*
X142113000Y-96774000D02*
X139293600Y-99847400D01*
X148209000Y-96774000D02*
X142113000Y-96774000D01*
X149098000Y-97663000D02*
X148209000Y-96774000D01*
X181737000Y-104013000D02*
X149098000Y-104013000D01*
X149098000Y-104013000D02*
X149098000Y-97663000D01*
X184556400Y-100888800D02*
X181737000Y-104013000D01*
%TO.N,/D3*%
X153035000Y-114808000D02*
X153035000Y-120015000D01*
X145415000Y-107569000D02*
X153035000Y-114808000D01*
X139827000Y-107569000D02*
X145415000Y-107569000D01*
X135503599Y-103245599D02*
X139827000Y-107569000D01*
X135503599Y-91978801D02*
X135503599Y-103245599D01*
X141833600Y-85648800D02*
X135503599Y-91978801D01*
%TO.N,/D4*%
X145034000Y-108585000D02*
X150495000Y-114046000D01*
X139065000Y-108585000D02*
X145034000Y-108585000D01*
X132963599Y-102483599D02*
X139065000Y-108585000D01*
X132963599Y-91978801D02*
X132963599Y-102483599D01*
X150495000Y-114046000D02*
X150495000Y-120015000D01*
X139293600Y-85648800D02*
X132963599Y-91978801D01*
%TO.N,/D5*%
X145415000Y-110363000D02*
X145415000Y-120015000D01*
X144399000Y-109347000D02*
X145415000Y-110363000D01*
X137287000Y-109347000D02*
X144399000Y-109347000D01*
X130383601Y-102443601D02*
X137287000Y-109347000D01*
X130383601Y-92018799D02*
X130383601Y-102443601D01*
X136753600Y-85648800D02*
X130383601Y-92018799D01*
X181991000Y-87809295D02*
X182016400Y-85648800D01*
X182499000Y-88392000D02*
X181991000Y-87809295D01*
X185674000Y-87757000D02*
X182499000Y-88392000D01*
%TO.N,/CS2#*%
X137795000Y-116612037D02*
X137795000Y-120015000D01*
X122763601Y-92018799D02*
X129133600Y-85648800D01*
X122763601Y-101580638D02*
X122763601Y-92018799D01*
X123321764Y-102138801D02*
X122763601Y-101580638D01*
X123952000Y-102616000D02*
X123321764Y-102138801D01*
X133985000Y-112268000D02*
X123952000Y-102616000D01*
X136144000Y-112268000D02*
X133985000Y-112268000D01*
X137795000Y-113919000D02*
X136144000Y-112268000D01*
X137795000Y-120015000D02*
X137795000Y-113919000D01*
%TO.N,/OE#*%
X169316400Y-88417400D02*
X169316400Y-85648800D01*
X174244000Y-92202000D02*
X169316400Y-88417400D01*
X135255000Y-114808000D02*
X135255000Y-120015000D01*
X135255000Y-114668005D02*
X135255000Y-114808000D01*
X124053600Y-85648800D02*
X117723599Y-91978801D01*
X113284000Y-108077000D02*
X114554000Y-109220000D01*
X117723599Y-91978801D02*
X117723599Y-102356599D01*
X117723599Y-102356599D02*
X118618000Y-103378000D01*
X118618000Y-103378000D02*
X118618000Y-105664000D01*
X118618000Y-105664000D02*
X117856000Y-106426000D01*
X117856000Y-106426000D02*
X116332000Y-106426000D01*
X116332000Y-106426000D02*
X115443000Y-105664000D01*
X115443000Y-105664000D02*
X114427000Y-105664000D01*
X114427000Y-105664000D02*
X113284000Y-106426000D01*
X113284000Y-106426000D02*
X113284000Y-108077000D01*
X114554000Y-109220000D02*
X129806995Y-109220000D01*
X129806995Y-109220000D02*
X135255000Y-114668005D01*
%TO.N,/A12*%
X132715000Y-113741200D02*
X132715000Y-120015000D01*
X129692400Y-110617000D02*
X132715000Y-113741200D01*
X111379000Y-110617000D02*
X129692400Y-110617000D01*
X108966000Y-108204000D02*
X111379000Y-110617000D01*
X108966000Y-104521000D02*
X108966000Y-108204000D01*
X111353600Y-102133400D02*
X108966000Y-104521000D01*
X111353600Y-100888800D02*
X111353600Y-102133400D01*
%TO.N,/A7*%
X113893600Y-98450400D02*
X113893600Y-100888800D01*
X113919000Y-97917000D02*
X113893600Y-98450400D01*
%TO.N,/D6*%
X179476400Y-87147400D02*
X179476400Y-85648800D01*
X181610000Y-89281000D02*
X179476400Y-87147400D01*
X183388000Y-89916000D02*
X181610000Y-89281000D01*
X127883599Y-91978801D02*
X127883599Y-101594599D01*
X134213600Y-85648800D02*
X127883599Y-91978801D01*
X127883599Y-101594599D02*
X136525000Y-110236000D01*
X136525000Y-110236000D02*
X141859000Y-110236000D01*
X141859000Y-110236000D02*
X142875000Y-111252000D01*
X142875000Y-111252000D02*
X142875000Y-120015000D01*
%TO.N,/D7*%
X176936400Y-88544400D02*
X176936400Y-85648800D01*
X180594000Y-90297000D02*
X176936400Y-88544400D01*
X181737000Y-91440000D02*
X180594000Y-90297000D01*
X125343599Y-101488801D02*
X135233798Y-111379000D01*
X125343599Y-91978801D02*
X125343599Y-101488801D01*
X131673600Y-85648800D02*
X125343599Y-91978801D01*
X135233798Y-111379000D02*
X139192000Y-111379000D01*
X140335000Y-112522000D02*
X140335000Y-120015000D01*
X139192000Y-111379000D02*
X140335000Y-112522000D01*
%TO.N,/A2*%
X126593600Y-94640400D02*
X126619000Y-94615000D01*
X126593600Y-100888800D02*
X126593600Y-94640400D01*
%TO.N,/A3*%
X124079000Y-99732030D02*
X124079000Y-94742000D01*
X124053600Y-99757430D02*
X124079000Y-99732030D01*
X124053600Y-100888800D02*
X124053600Y-99757430D01*
%TO.N,/A4*%
X121513600Y-96037400D02*
X121539000Y-96012000D01*
X121513600Y-100888800D02*
X121513600Y-96037400D01*
%TO.N,/A5*%
X118973600Y-96799400D02*
X118999000Y-96774000D01*
X118973600Y-100888800D02*
X118973600Y-96799400D01*
%TO.N,/A6*%
X116433600Y-96799400D02*
X116459000Y-96774000D01*
X116433600Y-100888800D02*
X116433600Y-96799400D01*
%TD*%
M02*
